<?xml version="1.0" encoding="utf-8"?>
<!-- Generator: Adobe Illustrator 17.0.2, SVG Export Plug-In . SVG Version: 6.00 Build 0)  -->
<!DOCTYPE svg PUBLIC "-//W3C//DTD SVG 1.1//EN" "http://www.w3.org/Graphics/SVG/1.1/DTD/svg11.dtd">
<svg version="1.1" id="Layer_1" xmlns:sketch="http://www.bohemiancoding.com/sketch/ns"
	 xmlns="http://www.w3.org/2000/svg" xmlns:xlink="http://www.w3.org/1999/xlink" x="0px" y="0px" width="187px" height="56px"
	 viewBox="0 0 187 56" enable-background="new 0 0 187 56" xml:space="preserve">
<title>Untitled</title>
<description>Created with Sketch (http://www.bohemiancoding.com/sketch)</description>
<path id="Shape" fill="#FFFFFF" d="M179.982,55.5H7.019c-3.594,0-6.519-2.912-6.519-6.493V7c0-3.584,2.925-6.5,6.519-6.5h172.962
	c3.59,0,6.519,2.916,6.519,6.5v42.007C186.503,52.588,183.573,55.5,179.982,55.5L179.982,55.5L179.982,55.5z"/>
<g id="Shape_1_" transform="translate(17.000000, 9.000000)">
	<path fill="#FF791A" d="M25.01,18.711c-0.04-4.432,3.636-6.588,3.804-6.688c-2.082-3.029-5.309-3.443-6.442-3.476
		c-2.71-0.285-5.339,1.618-6.719,1.618c-1.408,0-3.534-1.591-5.825-1.544c-2.948,0.045-5.707,1.749-7.22,4.395
		c-3.122,5.394-0.794,13.321,2.198,17.681c1.496,2.137,3.245,4.52,5.533,4.436c2.239-0.091,3.075-1.423,5.777-1.423
		c2.677,0,3.462,1.423,5.796,1.369c2.403-0.037,3.916-2.145,5.36-4.3c1.729-2.446,2.424-4.858,2.451-4.982
		C29.667,25.778,25.057,24.021,25.01,18.711L25.01,18.711z"/>
	<path fill="#FF791A" d="M20.601,5.678c1.204-1.503,2.028-3.548,1.799-5.622c-1.743,0.077-3.923,1.203-5.178,2.673
		c-1.11,1.295-2.102,3.418-1.846,5.415C17.334,8.289,19.344,7.158,20.601,5.678L20.601,5.678z"/>
	<g transform="translate(41.000000, 16.000000)">
		<path fill="#FF791A" d="M16.438,18.826h-3.129l-1.714-5.375H5.637l-1.633,5.375H0.958L6.862,0.528h3.646L16.438,18.826
			L16.438,18.826z M11.079,11.196l-1.55-4.778C9.365,5.93,9.056,4.78,8.605,2.971H8.55C8.368,3.749,8.077,4.899,7.679,6.418
			l-1.524,4.778H11.079L11.079,11.196z"/>
		<path fill="#FF791A" d="M31.591,12.066c0,2.244-0.61,4.018-1.832,5.32c-1.094,1.159-2.454,1.738-4.075,1.738
			c-1.751,0-3.01-0.623-3.775-1.871v6.923h-2.937V9.968c0-1.409-0.037-2.854-0.109-4.337h2.583l0.164,2.091h0.055
			c0.98-1.576,2.466-2.364,4.461-2.364c1.56,0,2.862,0.615,3.903,1.845C31.069,8.437,31.591,10.057,31.591,12.066L31.591,12.066z
			 M28.599,12.173c0-1.284-0.289-2.343-0.871-3.178c-0.635-0.868-1.488-1.302-2.557-1.302c-0.725,0-1.383,0.242-1.972,0.719
			c-0.59,0.481-0.975,1.11-1.156,1.888c-0.091,0.363-0.136,0.659-0.136,0.892v2.201c0,0.958,0.295,1.768,0.885,2.431
			c0.59,0.66,1.356,0.991,2.298,0.991c1.106,0,1.967-0.428,2.583-1.276C28.29,14.69,28.599,13.568,28.599,12.173L28.599,12.173z"/>
		<path fill="#FF791A" d="M46.798,12.066c0,2.244-0.61,4.018-1.832,5.32c-1.095,1.159-2.454,1.738-4.077,1.738
			c-1.751,0-3.01-0.623-3.775-1.871v6.923h-2.937V9.968c0-1.409-0.037-2.854-0.109-4.337h2.583l0.164,2.091h0.055
			c0.978-1.576,2.465-2.364,4.461-2.364c1.558,0,2.86,0.615,3.905,1.845C46.274,8.437,46.798,10.057,46.798,12.066L46.798,12.066z
			 M43.804,12.173c0-1.284-0.291-2.343-0.872-3.178c-0.635-0.868-1.485-1.302-2.554-1.302c-0.725,0-1.383,0.242-1.974,0.719
			c-0.59,0.481-0.974,1.11-1.155,1.888c-0.09,0.363-0.138,0.659-0.138,0.892v2.201c0,0.958,0.296,1.768,0.883,2.431
			c0.59,0.659,1.356,0.991,2.301,0.991c1.108,0,1.969-0.428,2.583-1.276C43.495,14.69,43.804,13.568,43.804,12.173L43.804,12.173z"
			/>
		<path fill="#FF791A" d="M63.8,13.693c0,1.558-0.546,2.824-1.63,3.802c-1.193,1.067-2.859,1.602-4.994,1.602
			c-1.973,0-3.555-0.379-4.748-1.14l0.679-2.443c1.288,0.762,2.703,1.141,4.244,1.141c1.108,0,1.969-0.25,2.583-0.747
			c0.616-0.498,0.927-1.163,0.927-1.994c0-0.744-0.258-1.367-0.763-1.874c-0.508-0.506-1.349-0.978-2.53-1.411
			c-3.21-1.195-4.817-2.943-4.817-5.241c0-1.501,0.568-2.731,1.7-3.692c1.133-0.96,2.634-1.44,4.503-1.44
			c1.668,0,3.059,0.29,4.162,0.869l-0.737,2.39c-1.039-0.561-2.211-0.841-3.523-0.841c-1.036,0-1.849,0.254-2.43,0.76
			c-0.489,0.452-0.737,1.004-0.737,1.658c0,0.722,0.282,1.321,0.845,1.792c0.488,0.433,1.378,0.905,2.665,1.411
			c1.579,0.635,2.739,1.375,3.482,2.225C63.428,11.369,63.8,12.429,63.8,13.693L63.8,13.693z"/>
		<path fill="#FF791A" d="M73.536,7.831h-3.238v6.406c0,1.629,0.57,2.442,1.714,2.442c0.525,0,0.96-0.044,1.305-0.136l0.081,2.226
			c-0.579,0.216-1.341,0.324-2.284,0.324c-1.16,0-2.067-0.353-2.721-1.06c-0.652-0.707-0.98-1.891-0.98-3.557V7.825h-1.929v-2.2
			h1.929V3.209l2.885-0.869v3.285h3.238V7.831L73.536,7.831z"/>
		<path fill="#FF791A" d="M88.116,12.12c0,2.028-0.581,3.693-1.742,4.995c-1.214,1.341-2.829,2.009-4.842,2.009
			c-1.943,0-3.487-0.642-4.639-1.925c-1.152-1.286-1.728-2.905-1.728-4.859c0-2.045,0.595-3.719,1.781-5.022
			c1.189-1.303,2.79-1.955,4.803-1.955c1.94,0,3.498,0.643,4.678,1.928C87.555,8.536,88.116,10.145,88.116,12.12L88.116,12.12z
			 M85.071,12.187c0-1.209-0.262-2.245-0.787-3.113c-0.616-1.048-1.498-1.572-2.64-1.572c-1.177,0-2.079,0.524-2.694,1.572
			c-0.526,0.868-0.788,1.922-0.788,3.168c0,1.21,0.262,2.25,0.788,3.114c0.635,1.048,1.521,1.572,2.669,1.572
			c1.123,0,2.003-0.535,2.64-1.598C84.8,14.442,85.071,13.398,85.071,12.187L85.071,12.187z"/>
		<path fill="#FF791A" d="M97.668,8.209c-0.291-0.054-0.602-0.081-0.926-0.081c-1.033,0-1.832,0.388-2.395,1.169
			c-0.488,0.688-0.733,1.556-0.733,2.606v6.923h-2.937V9.787c0-1.519-0.029-2.905-0.085-4.154h2.559l0.107,2.525h0.081
			c0.311-0.868,0.799-1.568,1.469-2.091c0.654-0.472,1.361-0.707,2.123-0.707c0.271,0,0.517,0.019,0.734,0.054L97.668,8.209
			L97.668,8.209z"/>
		<path fill="#FF791A" d="M110.805,11.604c0,0.525-0.034,0.968-0.107,1.33h-8.812c0.033,1.303,0.46,2.302,1.279,2.989
			c0.743,0.613,1.703,0.921,2.882,0.921c1.305,0,2.495-0.206,3.566-0.623l0.46,2.034c-1.251,0.544-2.728,0.815-4.432,0.815
			c-2.05,0-3.659-0.602-4.83-1.804c-1.168-1.203-1.754-2.82-1.754-4.846c0-1.988,0.544-3.645,1.634-4.966
			c1.141-1.411,2.683-2.116,4.622-2.116c1.905,0,3.348,0.705,4.328,2.116C110.415,8.572,110.805,9.958,110.805,11.604
			L110.805,11.604z M108.004,10.844c0.021-0.87-0.172-1.62-0.57-2.254c-0.508-0.817-1.291-1.224-2.339-1.224
			c-0.96,0-1.743,0.397-2.338,1.195c-0.489,0.634-0.78,1.396-0.869,2.28L108.004,10.844L108.004,10.844z"/>
	</g>
	<g transform="translate(43.000000, 1.000000)">
		<path fill="#FF791A" d="M2.791,9.058c-0.817,0-1.524-0.04-2.112-0.107V0.104c0.762-0.12,1.59-0.187,2.487-0.187
			c3.369,0,4.92,1.654,4.92,4.35C8.086,7.377,6.253,9.058,2.791,9.058L2.791,9.058z M3.284,1.051c-0.455,0-0.842,0.027-1.163,0.094
			V7.87c0.174,0.027,0.507,0.04,0.975,0.04c2.207,0,3.464-1.254,3.464-3.603C6.56,2.213,5.424,1.051,3.284,1.051L3.284,1.051z"/>
		<path fill="#FF791A" d="M12.92,9.125c-1.899,0-3.129-1.415-3.129-3.336c0-2.002,1.257-3.429,3.236-3.429
			c1.871,0,3.129,1.347,3.129,3.323C16.157,7.71,14.86,9.125,12.92,9.125L12.92,9.125z M12.975,3.413
			c-1.043,0-1.711,0.974-1.711,2.335c0,1.335,0.682,2.309,1.697,2.309s1.697-1.041,1.697-2.336
			C14.659,4.401,13.991,3.413,12.975,3.413L12.975,3.413z"/>
		<path fill="#FF791A" d="M26.983,2.493l-2.032,6.484h-1.324l-0.842-2.816c-0.214-0.707-0.387-1.401-0.522-2.094h-0.028
			c-0.106,0.707-0.307,1.415-0.521,2.094l-0.896,2.816H19.48l-1.912-6.484h1.484l0.736,3.083c0.174,0.734,0.32,1.427,0.441,2.082
			h0.028c0.106-0.546,0.28-1.228,0.535-2.068l0.923-3.095h1.177l0.883,3.029c0.214,0.734,0.387,1.455,0.522,2.135h0.039
			c0.094-0.667,0.241-1.375,0.441-2.135l0.789-3.029L26.983,2.493L26.983,2.493z"/>
		<path fill="#FF791A" d="M34.464,8.978H33.02V5.254c0-1.147-0.441-1.721-1.31-1.721c-0.856,0-1.444,0.734-1.444,1.588v3.857h-1.444
			V4.347c0-0.573-0.014-1.188-0.054-1.855h1.27l0.068,1.001h0.04c0.389-0.693,1.177-1.133,2.06-1.133c1.364,0,2.26,1.041,2.26,2.735
			L34.464,8.978L34.464,8.978z"/>
		<path fill="#FF791A" d="M38.446,8.978h-1.445v-9.46h1.445V8.978L38.446,8.978z"/>
		<path fill="#FF791A" d="M43.711,9.125c-1.897,0-3.129-1.415-3.129-3.336c0-2.002,1.257-3.429,3.235-3.429
			c1.872,0,3.129,1.347,3.129,3.323C46.947,7.71,45.649,9.125,43.711,9.125L43.711,9.125z M43.764,3.413
			c-1.043,0-1.711,0.974-1.711,2.335c0,1.335,0.683,2.309,1.696,2.309c1.017,0,1.697-1.041,1.697-2.336
			C45.448,4.401,44.781,3.413,43.764,3.413L43.764,3.413z"/>
		<path fill="#FF791A" d="M52.639,8.978l-0.105-0.747h-0.039c-0.441,0.601-1.084,0.894-1.9,0.894c-1.164,0-1.991-0.814-1.991-1.909
			c0-1.6,1.39-2.428,3.797-2.428v-0.12c0-0.854-0.453-1.282-1.349-1.282c-0.641,0-1.203,0.161-1.697,0.481L49.062,2.92
			c0.601-0.374,1.35-0.561,2.231-0.561c1.697,0,2.554,0.894,2.554,2.683V7.43c0,0.655,0.029,1.162,0.094,1.548H52.639L52.639,8.978z
			 M52.44,5.748c-1.604,0-2.408,0.388-2.408,1.308c0,0.681,0.415,1.013,0.991,1.013c0.734,0,1.418-0.56,1.418-1.32L52.44,5.748
			L52.44,5.748z"/>
		<path fill="#FF791A" d="M60.859,8.978l-0.068-1.041h-0.04c-0.415,0.786-1.112,1.188-2.086,1.188c-1.567,0-2.727-1.375-2.727-3.31
			c0-2.028,1.203-3.457,2.845-3.457c0.869,0,1.485,0.293,1.832,0.881h0.029v-3.722h1.445v7.712c0,0.627,0.015,1.214,0.054,1.748
			C62.144,8.978,60.859,8.978,60.859,8.978L60.859,8.978z M60.645,5.162c0-0.908-0.602-1.682-1.521-1.682
			c-1.071,0-1.725,0.947-1.725,2.281c0,1.308,0.679,2.203,1.696,2.203c0.908,0,1.55-0.788,1.55-1.721V5.162L60.645,5.162z"/>
		<path fill="#FF791A" d="M71.254,9.125c-1.897,0-3.128-1.415-3.128-3.336c0-2.002,1.257-3.429,3.235-3.429
			c1.872,0,3.129,1.347,3.129,3.323C74.492,7.71,73.195,9.125,71.254,9.125L71.254,9.125z M71.308,3.413
			c-1.042,0-1.71,0.974-1.71,2.335c0,1.335,0.682,2.309,1.696,2.309c1.017,0,1.697-1.041,1.697-2.336
			C72.994,4.401,72.326,3.413,71.308,3.413L71.308,3.413z"/>
		<path fill="#FF791A" d="M82.255,8.978H80.81V5.254c0-1.147-0.441-1.721-1.31-1.721c-0.856,0-1.443,0.734-1.443,1.588v3.857h-1.445
			V4.347c0-0.573-0.014-1.188-0.054-1.855h1.27l0.068,1.001h0.04c0.387-0.693,1.177-1.134,2.058-1.134
			c1.364,0,2.261,1.041,2.261,2.735V8.978L82.255,8.978z"/>
		<path fill="#FF791A" d="M91.97,3.574h-1.589v3.149c0,0.802,0.278,1.202,0.84,1.202c0.255,0,0.468-0.027,0.641-0.067l0.04,1.095
			c-0.28,0.107-0.654,0.161-1.12,0.161c-1.138,0-1.819-0.627-1.819-2.269v-3.27h-0.948V2.494h0.948V1.306l1.418-0.428v1.614h1.589
			V3.574L91.97,3.574z"/>
		<path fill="#FF791A" d="M99.614,8.978h-1.443V5.282c0-1.161-0.44-1.748-1.31-1.748c-0.748,0-1.445,0.507-1.445,1.535v3.909h-1.443
			v-9.46h1.443v3.895h0.029c0.455-0.707,1.113-1.055,1.954-1.055c1.375,0,2.215,1.067,2.215,2.762V8.978L99.614,8.978z"/>
		<path fill="#FF791A" d="M107.445,6.082h-4.333c0.028,1.228,0.842,1.921,2.047,1.921c0.641,0,1.23-0.107,1.751-0.307l0.225,1.001
			c-0.614,0.267-1.338,0.4-2.18,0.4c-2.032,0-3.235-1.281-3.235-3.268c0-1.988,1.232-3.483,3.072-3.483
			c1.66,0,2.702,1.228,2.702,3.083C107.499,5.682,107.487,5.909,107.445,6.082L107.445,6.082z M106.121,5.055
			c0-1.001-0.506-1.708-1.429-1.708c-0.829,0-1.485,0.72-1.579,1.708H106.121L106.121,5.055z"/>
	</g>
</g>
</svg>
