<?xml version="1.0" encoding="utf-8"?>
<!-- Generator: Adobe Illustrator 17.0.0, SVG Export Plug-In . SVG Version: 6.00 Build 0)  -->
<svg version="1.2" baseProfile="tiny" id="Wireframe"
	 xmlns="http://www.w3.org/2000/svg" xmlns:xlink="http://www.w3.org/1999/xlink" x="0px" y="0px" width="387px" height="804px"
	 viewBox="0 0 387 804" xml:space="preserve">
<path fill="#CCCCCC" d="M6,117.099v35.014H4.678c-1.192,0-2.678-0.97-2.678-2.166v-30.682c0-1.196,1.486-2.166,2.678-2.166H6
	 M8,115.099H6H4.678C2.47,115.099,0,116.88,0,119.265v30.682c0,2.384,2.47,4.166,4.678,4.166H6h2v-2v-35.014V115.099L8,115.099z"/>
<path fill="#CCCCCC" d="M6,192.571v26.845H5.002c-1.105,0-2.002-0.896-2.002-2.001v-22.844c0-1.105,0.896-2.001,2.002-2.001H6
	 M8,190.571H6H5.002c-2.207,0-4.002,1.795-4.002,4.001v22.844c0,2.206,1.795,4.001,4.002,4.001H6h2v-2v-26.845V190.571L8,190.571z"
	/>
<path fill="#CCCCCC" d="M6,258.93v26.845H5.002c-1.105,0-2.002-0.896-2.002-2.001v-22.844c0-1.105,0.896-2.001,2.002-2.001H6
	 M8,256.93H6H5.002c-2.207,0-4.002,1.795-4.002,4.001v22.844c0,2.206,1.795,4.001,4.002,4.001H6h2v-2V258.93V256.93L8,256.93z"/>
<path fill="#CCCCCC" d="M320,2c1.104,0,2,0.895,2,2v2h-60V4c0-1.105,0.896-2,2-2H320 M320,0.001h-56
	c-2.205,0-3.999,1.794-3.999,3.999v2v1.999H262h60h1.999V6V4C323.999,1.795,322.205,0.001,320,0.001L320,0.001z"/>
<g>
	<rect x="35" y="120" fill="#F2F2F2" width="322" height="570"/>
	<path fill="#231F20" d="M356,121v568H36V121H356 M358,119h-2H36h-2v2v568v2h2h320h2v-2V121V119L358,119z"/>
</g>
<path fill="#CCCCCC" d="M325,8c34.909,0,60,24.613,60,55v684c0,30.388-24.599,55-55,55H63c-30.401,0-55-24.612-55-55V63
	C8,32.613,33.107,8,59,8H325 M325,6H59c-13.136,0-26.496,6.095-36.656,16.723C11.805,33.748,6,48.052,6,63v684
	c0,31.43,25.57,57,57,57h267c31.43,0,57-25.57,57-57V63c0-15.44-6.23-29.771-17.543-40.356C357.985,11.911,342.197,6,325,6L325,6z"
	/>
<path fill="#CCCCCC" d="M197.078,710.5c19.053,0,34.5,15.446,34.5,34.5c0,19.054-15.446,34.5-34.5,34.5
	c-19.054,0-34.5-15.446-34.5-34.5C162.577,725.946,178.024,710.5,197.078,710.5 M197.078,708.488
	c-20.133,0-36.512,16.379-36.512,36.511c0,20.133,16.379,36.512,36.512,36.512c20.133,0,36.511-16.379,36.511-36.512
	C233.589,724.867,217.21,708.488,197.078,708.488L197.078,708.488z"/>
<path fill="#CCCCCC" d="M223,70c4.141,0,8,2.856,8,7c0,4.144-3.859,8-8,8h-52c-4.142,0-8-3.856-8-8c0-4.143,3.858-7,8-7H223 M223,68
	h-52c-5.514,0-10,4.037-10,9c0,5.234,4.766,10,10,10h52c5.234,0,10-4.766,10-10C233,72.037,228.514,68,223,68L223,68z"/>
<path fill="#CCCCCC" d="M197,39.997c3.866,0,7,3.135,7,7.003s-3.134,7.003-7,7.003c-3.866,0-7-3.135-7-7.003
	S193.134,39.997,197,39.997 M197,37.998c-4.962,0-8.999,4.038-8.999,9.002s4.037,9.002,8.999,9.002c4.962,0,8.999-4.038,8.999-9.002
	S201.962,37.998,197,37.998L197,37.998z"/>
</svg>
