<?xml version="1.0" encoding="utf-8"?>
<!-- Generator: Adobe Illustrator 17.1.0, SVG Export Plug-In . SVG Version: 6.00 Build 0)  -->
<!DOCTYPE svg PUBLIC "-//W3C//DTD SVG 1.1//EN" "http://www.w3.org/Graphics/SVG/1.1/DTD/svg11.dtd">
<svg version="1.1" id="Layer_1" xmlns:sketch="http://www.bohemiancoding.com/sketch/ns"
	 xmlns="http://www.w3.org/2000/svg" xmlns:xlink="http://www.w3.org/1999/xlink" x="0px" y="0px" viewBox="0 0 512 512"
	 enable-background="new 0 0 512 512" xml:space="preserve">
<title>Untitled</title>
<description>Created with Sketch (http://www.bohemiancoding.com/sketch)</description>
<g id="Page-1" sketch:type="MSPage">
	<g id="icon" sketch:type="MSLayerGroup">
		<path id="Shape" sketch:type="MSShapeGroup" fill="none" stroke="#FFFFFF" stroke-width="2" d="M437.5,9.7C410,1,384.4,1,333.2,1
			H178.8C127.6,1,102,1,74.5,9.7c-30.1,11-53.8,34.7-64.7,64.7C1,102,1,127.6,1,178.8v154.4c0,51.2,0,76.8,8.7,104.4
			c11,30.1,34.7,53.8,64.7,64.7c27.6,8.7,53.2,8.7,104.4,8.7h154.4c51.2,0,76.8,0,104.4-8.7c30.1-11,53.8-34.7,64.7-64.7
			c8.7-27.6,8.7-53.2,8.7-104.4V178.8c0-51.2,0-76.8-8.7-104.4C491.3,44.4,467.6,20.7,437.5,9.7L437.5,9.7z"/>
	</g>
</g>
</svg>
